# xmcd
#
# Track frame offsets:
#	150
#	24635
#	50148
#	74909
#	100039
#	124238
#	147509
#	168858
#	191376
#	215529
#	241692
#	264579
#	288423
#	313624
#
# Disc length: 4546 seconds
# Revision: 0
# Processed by: cddbd v1.5.2PL0 Copyright (c) Steve Scherf et al.
# Submitted via: dBpowerAMP V12.0
#
DISCID=d611c00e
DTITLE=Gert Heidenreich - Die andere Heimat 3
DYEAR=1900
DGENRE=
TTITLE0=25
TTITLE1=26
TTITLE2=27
TTITLE3=28
TTITLE4=29
TTITLE5=30
TTITLE6=31
TTITLE7=32
TTITLE8=33
TTITLE9=34
TTITLE10=35
TTITLE11=36
TTITLE12=37
TTITLE13=38
EXTD=
EXTT0=
EXTT1=
EXTT2=
EXTT3=
EXTT4=
EXTT5=
EXTT6=
EXTT7=
EXTT8=
EXTT9=
EXTT10=
EXTT11=
EXTT12=
EXTT13=
PLAYORDER=
